<svg width="487" height="196" viewBox="120 2442 487 196" xmlns="http://www.w3.org/2000/svg"><g fill="none" fill-rule="evenodd"><path d="M593.508 2452.33c0-5.726-4.6-10.33-10.275-10.33H130.275c-5.665 0-10.275 4.625-10.275 10.33v175.34c0 5.726 4.6 10.33 10.275 10.33h473.523c3.423 0 4.223-1.96 1.81-4.38l-11.397-11.42c-.388-.39-.703-1.161-.703-1.699v-168.17z" fill="#A7D2F7"/><path d="M165.534 2511.647l4.413-4.433c-2.302-3.597-4.54-6.874-6.715-9.829 1.471-5.267 2.686-11.049 3.645-17.473l-6.139-1.092a133.676 133.676 0 0 1-2.238 12.206c-2.175-2.827-4.221-5.268-6.14-7.324l-3.773 3.662v-11.756h39.395v34.176c-2.303-3.855-4.54-7.452-6.715-10.728 1.79-5.653 3.261-12.013 4.348-18.951l-6.267-1.092c-.703 4.69-1.599 9.122-2.686 13.297a109.425 109.425 0 0 0-6.075-7.837l-4.093 3.983c2.75 3.598 5.436 7.26 7.994 11.05-2.175 6.038-4.86 11.306-8.058 15.93l4.22 5.268c3.07-4.11 5.756-8.929 8.059-14.582 1.79 2.827 3.453 5.717 5.116 8.672l4.157-4.175v7.259c0 1.413-.768 2.12-2.239 2.12l-5.883-.321 1.663 6.488h6.395c4.412 0 6.65-2.249 6.65-6.745v-50.236H142v57.43h6.587v-38.543c2.686 3.276 5.372 6.68 7.93 10.15-1.918 5.91-4.349 11.177-7.29 15.674l4.22 5.268c2.878-4.112 5.372-8.994 7.483-14.647a344.56 344.56 0 0 1 4.604 7.13zm73.546-44.583v27.688h-9.21v31.477h6.332v-3.854h16.116v3.79h6.395v-31.413h-12.854v-10.6h15.284v-6.552H245.86v-10.536h-6.78zm-2.878 49.08v-15.547h16.116v15.546h-16.116zm-32.616-39.058v6.424h25.709v-6.424h-9.849a192.33 192.33 0 0 0-2.11-9.572l-6.78 1.092c.896 2.634 1.664 5.46 2.431 8.48h-9.4zm7.035 8.929l-5.756 1.927c1.663 7.902 3.07 16.124 4.221 24.668l5.5-1.349c-1.151-9.443-2.494-17.858-3.965-25.246zm17.33 24.99c-1.662.449-3.389.899-5.18 1.413 1.855-7.838 3.262-16.382 4.222-25.632l-6.46-.9c-.831 9.83-2.11 19.144-3.9 27.945-4.413.9-8.89 1.67-13.43 2.184l1.598 6.424c8.186-1.35 15.924-2.955 23.15-4.882v-6.553zm47.262-43.041l-4.541 4.368c4.413 3.34 7.866 6.552 10.36 9.507l4.54-4.625c-2.813-3.083-6.266-6.167-10.36-9.25zm-8.506 18.244v6.424h8.25v22.548c0 1.413-.576 2.634-1.663 3.597l2.558 6.039c4.733-3.084 9.21-6.488 13.43-10.343l-1.854-7.066a341.173 341.173 0 0 1-5.948 5.46v-26.66h-14.773zm22.895 7.708v6.424h3.645c1.535 5.011 4.413 9.508 8.506 13.62-4.605 2.954-10.169 5.395-16.756 7.323l3.71 5.653c7.29-2.12 13.366-4.947 18.354-8.48 4.22 3.148 9.529 5.974 15.796 8.544l3.581-5.782c-5.691-1.991-10.488-4.24-14.453-6.809 4.093-4.047 7.035-8.865 8.826-14.39v-6.103H289.6zm9.912 6.424h14.582c-1.791 3.726-4.285 7.003-7.547 9.958-3.325-2.955-5.628-6.296-7.035-9.958zm-5.563-31.284v8.736c0 4.176-2.75 7.388-8.122 9.636l4.476 5.14c6.78-3.598 10.233-8.801 10.233-15.482v-1.735h9.848v8.544c0 4.497 2.367 6.745 7.163 6.745h7.29v-6.103h-5.5c-1.598 0-2.366-.77-2.366-2.184v-13.297h-23.022zm56.853 16.574v6.68h16.5v34.433h6.907v-34.433h15.668v-6.68h-15.668V2467h-6.907v18.63h-16.5zm-11.255-18.116l-4.733 4.625c4.54 3.34 8.058 6.488 10.488 9.443l4.605-4.69c-2.878-3.083-6.331-6.23-10.36-9.378zm-8.89 18.565v6.424h8.762v22.805c0 1.35-.576 2.506-1.727 3.47l2.558 6.038a99.039 99.039 0 0 0 13.302-10.407l-1.727-6.874a188.978 188.978 0 0 1-5.947 5.396v-26.852h-15.22zm69.964-12.976v6.231h17.331v5.717h-22.447v6.296h26.348a109.927 109.927 0 0 1-27.371 10.343l2.814 6.23c3.325-1.22 6.523-2.376 9.592-3.532v22.355h6.78v-2.313h24.94v2.313h6.716v-30.064h-20.657c2.686-1.413 5.116-2.698 7.29-3.983l2.111-1.35H453v-6.295h-10.68c3.453-3.083 6.779-6.488 9.849-10.278l-5.053-3.726c-4.157 5.14-9.209 9.765-15.092 14.004h-7.29v-5.717h13.749v-6.231h-13.75V2467h-6.779v6.103h-17.33zm13.046 40.15h24.942v5.267h-24.942v-5.267zm24.942-5.782h-24.942v-5.01h24.942v5.01zm-269.979 99.885c5.442 0 8.194-2.897 8.194-8.562v-49.313h-6.978v47.51c0 2.576-1.28 3.863-3.777 3.863-2.56 0-5.313-.193-8.258-.515l1.6 7.017h9.219zm-16.069-42.94c-2.24 11.009-5.762 19.829-10.563 26.46l5.89 5.214c4.737-6.695 8.514-16.416 11.395-29.034l-6.722-2.64zm39.5-1.674l-6.146 3.863c4.353 10.944 7.81 20.923 10.371 29.871l6.082-4.249c-2.433-8.369-5.89-18.218-10.307-29.485zm28.36 10.816l-3.008 2.897c1.92 1.738 3.457 3.348 4.545 4.828l3.009-3.025c-1.217-1.61-2.753-3.155-4.546-4.7zm16.005.644l-3.137 2.961c2.113 1.931 3.777 3.67 4.994 5.343l3.137-3.09c-1.345-1.802-3.01-3.54-4.994-5.214zm-16.453 6.76l-1.856 3.733h-10.371v5.601h7.362c-1.088 1.803-2.24 3.67-3.393 5.601 2.625.901 5.25 1.867 7.938 3.026-3.329 1.416-7.234 2.575-11.78 3.54l2.882 5.537c6.017-1.545 11.203-3.54 15.428-6.116a117.76 117.76 0 0 1 10.371 5.665l3.777-5.085a116.323 116.323 0 0 0-9.026-4.443 26.068 26.068 0 0 0 6.402-9.012v-4.314h-12.932c.32-.643.64-1.287 1.024-1.931l-5.826-1.803zm5.506 14.677c-2.049-.772-4.033-1.48-6.018-1.995l2.113-3.348h9.283c-1.28 1.931-3.073 3.734-5.378 5.343zm-1.664-45.128h-15.173v22.017h4.225v-16.996h6.85v16.996h4.098v-22.017zm-9.283 7.725v7.146c-.128 3.605-.64 6.566-1.6 8.82-1.025 2.06-2.946 3.862-5.762 5.279l2.56 3.927c2.881-1.481 4.994-3.605 6.274-6.31 1.28-2.96 2.049-6.823 2.177-11.716v-7.146h-3.65zm25.8-7.725h-14.917v22.017h4.097v-16.996h6.594v16.996h4.225v-22.017zm-9.283 7.725v7.146c-.064 3.54-.512 6.502-1.345 8.82-.832 2.06-2.432 3.798-4.737 5.214l2.56 3.927c2.433-1.416 4.226-3.54 5.314-6.244 1.153-2.962 1.729-6.824 1.857-11.717v-7.146h-3.65zm8.642 32.125v5.794h16.965v-5.794h-16.965zm12.42-28.97l-3.713 2.317a63.062 63.062 0 0 1 4.353 6.18l3.585-2.51c-1.024-1.674-2.432-3.67-4.225-5.987zm-3.97 18.09v-19.893h8.9c-.193 6.438-.385 10.172-.64 11.202-.32.901-.897 1.416-1.665 1.416-1.025 0-2.177-.064-3.585-.193l1.728 5.343h1.857c3.009 0 5.057-1.094 6.21-3.154 1.024-2.06 1.856-8.82 2.368-20.28h-10.435c.768-1.609 1.345-3.283 1.793-5.02L248.4 2548c-.384 2.06-.96 3.991-1.6 5.923h-4.29v31.287h16.901c0 8.434-.32 13.198-.96 14.292-.768 1.159-1.857 1.738-3.201 1.738-1.857 0-4.161-.064-6.914-.128l1.792 6.051h4.994c3.585 0 6.274-1.094 7.938-3.219 1.537-2.124 2.369-10.3 2.497-24.463h-17.413zm25.865-26.009v6.052h12.1v-6.052h-12.1zm-1.793 10.107v6.31h16.837c.256 10.944.704 18.54 1.472 22.66.769 4.636 1.985 8.37 3.65 11.266 1.408 2.06 2.88 3.155 4.48 3.155 2.434 0 4.098-3.219 4.994-9.657l-1.728-1.223h18.053v-5.858h-19.141v5.086l-1.921-1.352c-.192 3.412-.384 5.15-.64 5.279-.896-.451-1.665-3.026-2.305-7.726-.576-3.734-.96-10.944-1.088-21.63h5.954v-6.31h-6.018c-.064-2.897-.064-6.051-.064-9.399 1.152 2.447 2.24 5.28 3.2 8.498l4.482-2.06c-1.024-3.09-2.177-5.987-3.457-8.627l-4.225 1.352v-2.832h-5.89c0 4.7 0 9.077.064 13.068h-16.709zm7.554 7.919v26.008a27.6 27.6 0 0 0-2.24.451v-21.051h-5.058v21.952l-2.369.387.833 6.309c7.17-1.288 13.508-2.897 19.141-4.957v-5.923c-1.536.515-3.2 1.03-4.93 1.545v-10.3h3.266v-5.537h-3.265v-8.884h-5.378zm32.65-10.558l-3.457 2.253v-3.348h10.5c-.257 6.31-.577 9.979-.961 11.01-.384.9-1.088 1.351-2.049 1.351-1.152 0-2.497-.064-4.033-.193l1.793 5.472h2.24c3.265 0 5.506-1.094 6.722-3.219 1.153-2.06 1.985-8.755 2.497-20.214H314.66a37.458 37.458 0 0 0 1.664-4.958l-6.466-.9a46.359 46.359 0 0 1-1.536 5.858h-5.25v31.351h19.654c0 8.756-.384 13.649-1.088 14.807-.768 1.16-1.857 1.803-3.265 1.803-1.409 0-3.137-.065-5.25-.193l1.857 5.922h3.265c3.713 0 6.466-1.094 8.13-3.218 1.665-2.254 2.497-10.558 2.625-24.915h-20.038v-15.515c2.113 2.254 3.777 4.314 5.058 6.245l4.097-2.897c-1.345-1.803-3.265-3.991-5.698-6.502z" fill="#000"/></g></svg>